<?xml version="1.0" encoding="UTF-8" standalone="no"?>
<!-- Created with Inkscape (http://www.inkscape.org/) -->

<svg
   xmlns:dc="http://purl.org/dc/elements/1.1/"
   xmlns:cc="http://creativecommons.org/ns#"
   xmlns:rdf="http://www.w3.org/1999/02/22-rdf-syntax-ns#"
   xmlns:svg="http://www.w3.org/2000/svg"
   xmlns="http://www.w3.org/2000/svg"
   xmlns:sodipodi="http://sodipodi.sourceforge.net/DTD/sodipodi-0.dtd"
   xmlns:inkscape="http://www.inkscape.org/namespaces/inkscape"
   width="48"
   height="48"
   viewBox="0 0 12.7 12.7"
   version="1.1"
   id="svg7343"
   sodipodi:docname="icon_contour_color.svg"
   inkscape:version="0.92.5 (2060ec1f9f, 2020-04-08)">
  <defs
     id="defs7337" />
  <sodipodi:namedview
     id="base"
     pagecolor="#ffffff"
     bordercolor="#666666"
     borderopacity="1.0"
     inkscape:pageopacity="0.0"
     inkscape:pageshadow="2"
     inkscape:zoom="5.5208334"
     inkscape:cx="6.6292198"
     inkscape:cy="31.282395"
     inkscape:document-units="mm"
     inkscape:current-layer="layer1"
     showgrid="false"
     inkscape:pagecheckerboard="true"
     units="px"
     showguides="false"
     inkscape:guide-bbox="true"
     inkscape:window-width="1366"
     inkscape:window-height="705"
     inkscape:window-x="1358"
     inkscape:window-y="-8"
     inkscape:window-maximized="1">
    <inkscape:grid
       type="xygrid"
       id="grid7890" />
    <sodipodi:guide
       position="6.35,12.964583"
       orientation="1,0"
       id="guide7892"
       inkscape:locked="false" />
    <sodipodi:guide
       position="11.90625,6.35"
       orientation="0,1"
       id="guide7894"
       inkscape:locked="false" />
  </sodipodi:namedview>
  <metadata
     id="metadata7340">
    <rdf:RDF>
      <cc:Work
         rdf:about="">
        <dc:format>image/svg+xml</dc:format>
        <dc:type
           rdf:resource="http://purl.org/dc/dcmitype/StillImage" />
        <dc:title />
      </cc:Work>
    </rdf:RDF>
  </metadata>
  <g
     inkscape:label="Calque 1"
     inkscape:groupmode="layer"
     id="layer1"
     transform="translate(0,-284.3)">
    <circle
       style="opacity:1;fill:#111111;fill-opacity:1;stroke:none;stroke-width:0.76499999;stroke-linecap:round;stroke-linejoin:round;stroke-miterlimit:4;stroke-dasharray:none;stroke-dashoffset:0;stroke-opacity:1;paint-order:stroke markers fill"
       id="path7896-1"
       cx="6.3499999"
       cy="290.64999"
       r="0" />
    <path
       style="fill:#2bbbad;fill-opacity:0.98823529;stroke:none;stroke-width:0.26458329px;stroke-linecap:butt;stroke-linejoin:miter;stroke-opacity:1"
       d="m 8.9296708,284.38736 c -0.1205419,0.005 -0.2153785,0.10493 -0.2140663,0.22549 0,1.05098 -0.1677232,1.72684 -0.3948031,2.1227 -0.2270789,0.39586 -0.4838841,0.51659 -0.7485877,0.51659 -0.269385,0.0256 -0.269385,0.41925 0,0.44479 0.2647198,0 0.5215113,0.12055 0.7485877,0.51656 0.2270739,0.39592 0.3948027,1.07802 0.3948031,2.12914 0,0.30043 0.4499218,0.30043 0.4499218,0 0,-1.05098 0.1690034,-1.7332 0.3960852,-2.12914 0.2270812,-0.39586 0.4838925,-0.51656 0.7485885,-0.51656 0.269384,-0.0256 0.269384,-0.41924 0,-0.44479 -0.264734,0 -0.5215146,-0.12055 -0.7485885,-0.51659 -0.2270741,-0.39596 -0.3960852,-1.07158 -0.3960852,-2.1227 0.00152,-0.12948 -0.1065197,-0.23317 -0.2358555,-0.22549 z m -4.319762,3.08921 c -0.02287,0.002 -0.045795,0.009 -0.066655,0.0199 -0.00663,0.005 -0.012999,0.007 -0.019224,0.0123 -0.025927,0.0149 -0.047763,0.0368 -0.065373,0.0615 -0.00759,0.0123 -0.015206,0.0249 -0.020513,0.0372 -0.00427,0.007 -0.00697,0.0174 -0.010243,0.0249 -0.00354,0.0149 -0.00569,0.0288 -0.0064,0.0436 -0.00235,0.005 -0.00452,0.0123 -0.0064,0.0174 -3.1e-5,0.002 -3.1e-5,0.005 0,0.007 0,1.66012 -0.2797106,2.74473 -0.6703964,3.39428 -0.390686,0.6496 -0.8660254,0.87548 -1.3548926,0.87548 -0.2693855,0.0256 -0.2693855,0.41925 0,0.4448 0.4888672,0 0.9642066,0.22722 1.3548926,0.87675 0.3906852,0.64954 0.6703964,1.73546 0.6703964,3.39557 0,0.30047 0.4499216,0.30047 0.4499216,0 0,-1.66011 0.2797099,-2.74603 0.6703964,-3.39557 0.3906861,-0.64949 0.8660263,-0.87675 1.3548927,-0.87675 0.2693852,-0.0256 0.2693852,-0.41925 0,-0.4448 -0.4888664,0 -0.9642066,-0.22597 -1.3548927,-0.87548 -0.3906857,-0.64955 -0.6703964,-1.73416 -0.6703964,-3.39428 -8.433e-4,-0.0149 -0.00293,-0.0274 -0.0064,-0.0423 -0.00967,-0.0443 -0.032081,-0.0843 -0.065373,-0.11535 -0.00395,-0.007 -0.00823,-0.0148 -0.012825,-0.0199 -0.025648,-0.0174 -0.055286,-0.0311 -0.085881,-0.0359 -0.013717,-0.005 -0.028186,-0.007 -0.0423,-0.007 -0.00645,-2.8e-4 -0.0128,-2.8e-4 -0.019224,0 -0.00804,-4.1e-4 -0.014982,-4.1e-4 -0.023068,0 v -10e-4 z m 4.6786739,4.73123 c -0.1085338,0.0149 -0.188857,0.10965 -0.1897103,0.21927 0,0.66703 -0.1083179,1.09441 -0.2371373,1.33055 -0.1288217,0.23614 -0.2496728,0.28711 -0.3768575,0.28711 -0.2693795,0.0256 -0.2693795,0.41796 0,0.44351 0.1272045,0 0.2480415,0.0484 0.3768575,0.28456 0.1288143,0.23614 0.2371373,0.66599 0.2371373,1.33312 -2.788e-4,0.007 -2.788e-4,0.0123 0,0.0199 0.00164,0.009 0.00384,0.0174 0.0064,0.0249 0.00281,0.0149 0.00704,0.0288 0.012825,0.0437 0.0019,0.005 0.00404,0.0123 0.0064,0.0174 0.00343,0.007 0.00747,0.0123 0.011534,0.0199 0.00553,0.007 0.010364,0.0148 0.016669,0.0199 0.00919,0.009 0.019596,0.0199 0.030762,0.0308 0.00622,0.005 0.012551,0.007 0.019224,0.0123 0.013047,0.009 0.027515,0.0174 0.0423,0.0249 0.00635,0.002 0.012725,0.005 0.019224,0.007 0.013717,0.005 0.028185,0.007 0.042299,0.007 0.044488,0.002 0.088521,-0.007 0.1269018,-0.0308 0.00667,-0.002 0.013047,-0.007 0.019224,-0.0123 0.00628,-0.007 0.012427,-0.0123 0.017933,-0.0199 0.04444,-0.0407 0.06988,-0.0976 0.071783,-0.15776 0,-0.66703 0.1031862,-1.09698 0.2320102,-1.3331 0.1288242,-0.23614 0.2560946,-0.28458 0.3832666,-0.28458 0.269385,-0.0256 0.269385,-0.41922 0,-0.44477 -0.127222,0 -0.2544573,-0.0496 -0.3832666,-0.28587 -0.1288119,-0.23614 -0.2320102,-0.66595 -0.2320102,-1.3331 -0.00122,-0.13495 -0.1203061,-0.23913 -0.2538019,-0.21927 v -0.001 z"
       id="path835"
       inkscape:connector-curvature="0" />
  </g>
</svg>
